<?xml version="1.0" encoding="UTF-8"?><svg id="Layer_2" xmlns="http://www.w3.org/2000/svg" viewBox="0 0 60 35.39"><defs><style>.cls-1{fill:#02f6ac;}.cls-2{fill:#fff;}.cls-3{fill:#22d8ed;}</style></defs><g id="Layer_1-2"><path class="cls-3" d="m1.95,8.36c.29,0,.42.13.42.43v17.03c0,.3-.13.43-.42.43H.42c-.29,0-.42-.13-.42-.43V8.79c0-.3.13-.43.42-.43h1.53Z"/><path class="cls-3" d="m1.52,3.34h-.66c-.47,0-.86.38-.86.86v.66c0,.47.38.86.86.86h.66c.47,0,.86-.38.86-.86v-.66c0-.47-.38-.86-.86-.86Z"/><path class="cls-3" d="m16.03,8.43c.26.03.39.17.39.43v1.03c0,.3-.13.43-.42.43h-5.92c-1.89,0-2.83.66-2.83,1.98v.53c0,1.19.52,1.98,2.18,2.68l4.58,1.88c2.57,1.06,3.09,2.35,3.09,4.43v.4c0,1.69-.49,2.81-1.43,3.37-.94.56-2.57.83-4.94.83s-4.26-.1-5.66-.26c-.26-.03-.39-.17-.39-.4v-1.03c0-.3.13-.43.39-.43h5.72c3.09,0,3.97-.4,3.97-2.08v-.43c0-1.16-.49-1.85-1.95-2.48l-4.88-1.98c-2.02-.83-3.02-2.35-3.02-4.53v-.73c0-1.36.55-2.38,1.3-2.91.36-.26.84-.46,1.43-.63,1.17-.3,2.02-.33,3.35-.33,2.05,0,3.71.07,5.04.23h0Z"/><path class="cls-3" d="m21.3,3.37c.33-.1.49.03.49.36v4.63h3.61c.29,0,.42.13.42.43v1.16c0,.26-.13.4-.42.4h-3.61v12.1c0,1.49.39,1.85,2.11,1.85h1.72c.29,0,.46.13.46.4v1.12c0,.23-.13.36-.39.43-.46.1-1.04.17-1.76.17-1.07,0-1.66,0-2.57-.26-1.14-.36-1.95-1.22-1.95-3.21V4.16c0-.23.13-.36.36-.43l1.53-.36h0Z"/><path class="cls-1" d="m55.32,8.96v.93c0,.3-.13.43-.42.43h-4.39c-3.02,0-4.55.81-4.78,2.81v12.7c0,.08-.01.15-.03.21-.02.04-.04.08-.06.11-.07.07-.18.11-.33.11h-1.53c-.29,0-.42-.13-.42-.43v-12.5c0-3.41,2.07-4.89,6.09-5.1.34-.02.69-.03,1.06-.03,1.59,0,3.09.1,4.42.3.26.07.39.23.39.46h0Z"/><path class="cls-3" d="m27.58,21.19c0,2.02.46,3.37,1.33,4.13.88.73,2.44,1.09,4.62,1.09,1.15,0,2.18-.03,3.07-.08v-2.1c-.75.06-1.6.09-2.55.09-3.12,0-4.13-.73-4.13-3.14,0-2.02.91-2.81,3.09-2.81h3.59v-2.08h-3.59c-3.74,0-5.43,1.36-5.43,4.89h0Z"/><path class="cls-1" d="m29.07,8.96v.93c0,.3.13.43.42.43h4.39c3.02,0,4.55.81,4.78,2.81v12.7c0,.08.01.15.03.21.02.04.04.08.07.11.07.07.18.11.33.11h1.53c.29,0,.42-.13.42-.43v-12.5c0-3.41-2.07-4.89-6.09-5.1-.34-.02-.69-.03-1.06-.03-1.59,0-3.09.1-4.42.3-.26.07-.39.23-.39.46h0Z"/><path class="cls-3" d="m59.58,8.36c.29,0,.42.13.42.43v17.03c0,.3-.13.43-.42.43h-1.53c-.29,0-.42-.13-.42-.43V8.79c0-.3.13-.43.42-.43h1.53Z"/><path class="cls-3" d="m59.14,3.34h-.66c-.47,0-.86.38-.86.86v.66c0,.47.38.86.86.86h.66c.47,0,.86-.38.86-.86v-.66c0-.47-.38-.86-.86-.86Z"/><path class="cls-2" d="m43.04,1.61l.09.12.15-.02.44-1.41-.68,1.31Z"/><path class="cls-2" d="m44.59,4.88l-.12.09.02.15,1.4.44-1.31-.68Z"/><path class="cls-2" d="m41.09,6.34l-.44,1.4.68-1.31-.09-.12-.15.02Z"/><path class="cls-2" d="m38.47,2.48l1.31.68.12-.09-.02-.15-1.4-.44Z"/><path class="cls-2" d="m44.5,2.93l-.02.15.12.09,1.31-.68-1.4.44Z"/><path class="cls-2" d="m43.28,6.34l-.15-.02-.09.12.68,1.31-.44-1.41Z"/><path class="cls-2" d="m39.77,4.88l-1.31.68,1.4-.44.02-.15-.12-.09Z"/><path class="cls-2" d="m40.64.31l.44,1.41.15.02.09-.12-.68-1.31Z"/><path class="cls-2" d="m42.18,0l-.87,3.16-3.16.87h4.02V0Z"/><path class="cls-2" d="m46.21,4.02l-3.16-.87-.87-3.16v4.02h4.02Z"/><path class="cls-2" d="m38.16,4.02l3.16.87.87,3.16v-4.02h-4.02Z"/><path class="cls-2" d="m42.18,4.02v4.02l.87-3.16,3.16-.87h-4.02Z"/><path class="cls-2" d="m40.38,3l.61-.17-1.65-1.65,1.04,1.82Z"/><path class="cls-2" d="m39.34,1.18l1.65,1.65.17-.61-1.82-1.04Z"/><path class="cls-2" d="m40.38,5.05l-1.04,1.82,1.65-1.65-.61-.17Z"/><path class="cls-2" d="m41.16,5.83l-.17-.61-1.65,1.65,1.82-1.04Z"/><path class="cls-2" d="m43.99,3l1.04-1.82-1.65,1.65.61.17Z"/><path class="cls-2" d="m43.21,2.22l.17.61,1.65-1.65-1.82,1.04Z"/><path class="cls-2" d="m43.38,5.22l-.17.61,1.82,1.04-1.65-1.65Z"/><path class="cls-2" d="m43.99,5.05l-.61.17,1.65,1.65-1.04-1.82Z"/><path class="cls-2" d="m3.44,33.38c0,.29-.05.56-.14.8-.09.24-.23.45-.4.62-.17.17-.38.31-.62.4-.24.1-.51.14-.8.14H0v-3.94h1.48c.29,0,.56.05.8.14s.45.23.62.4c.17.17.31.38.4.62.09.24.14.51.14.8Zm-.6,0c0-.23-.03-.44-.1-.63-.06-.19-.16-.34-.27-.47s-.26-.23-.43-.29c-.17-.07-.35-.1-.56-.1h-.89v3h.89c.21,0,.39-.03.56-.1.17-.07.31-.17.43-.29s.21-.29.27-.47c.06-.18.1-.4.1-.63Z"/><path class="cls-2" d="m11.4,35.35h-.59v-3.94h.59v3.94Z"/><path class="cls-2" d="m22.23,33.43v1.54c-.2.14-.41.25-.64.32-.23.07-.47.11-.74.11-.32,0-.61-.05-.86-.15s-.48-.24-.66-.41-.32-.39-.42-.64c-.1-.25-.15-.52-.15-.81s.05-.57.14-.82c.09-.25.23-.46.4-.64.18-.18.39-.31.64-.41.25-.1.53-.15.84-.15.16,0,.3.01.44.04.13.02.26.06.37.1.12.04.22.1.32.16.1.06.19.13.27.21l-.17.26s-.06.07-.1.08c-.04.01-.09,0-.14-.03-.05-.03-.1-.06-.16-.1s-.13-.07-.21-.1c-.08-.03-.17-.06-.28-.08-.11-.02-.23-.03-.38-.03-.22,0-.41.04-.58.11-.17.07-.32.17-.44.3-.12.13-.22.29-.28.48-.07.19-.1.39-.1.62s.03.46.1.65c.07.19.17.35.29.49.13.13.28.23.46.3.18.07.39.1.61.1.09,0,.17,0,.25-.02.08,0,.15-.02.22-.04.07-.02.14-.04.2-.07.06-.03.13-.06.19-.09v-.83h-.58s-.07-.01-.09-.03-.03-.05-.03-.08v-.33h1.23Z"/><path class="cls-2" d="m30.24,35.35h-.59v-3.94h.59v3.94Z"/><path class="cls-2" d="m40.54,31.9h-1.25v3.45h-.58v-3.45h-1.26v-.49h3.09v.49Z"/><path class="cls-2" d="m50.61,35.35h-.45c-.05,0-.09-.01-.13-.04-.03-.03-.06-.06-.07-.1l-.35-.91h-1.74l-.35.91s-.04.07-.07.09c-.03.03-.08.04-.13.04h-.45l1.57-3.94h.59l1.57,3.94Zm-1.16-1.47l-.58-1.53c-.04-.1-.08-.24-.13-.4-.02.08-.04.15-.06.22s-.04.13-.06.18l-.58,1.52h1.42Z"/><path class="cls-2" d="m60,34.86v.49h-2.26v-3.94h.58v3.45h1.67Z"/></g></svg>